<svg width="28" height="34" viewBox="0 0 28 34" fill="none" xmlns="http://www.w3.org/2000/svg">
<path fill-rule="evenodd" clip-rule="evenodd" d="M23.3185 18.0239C23.2794 13.7421 26.8681 11.659 27.0322 11.562C24.9998 8.63534 21.8496 8.23546 20.7426 8.20357C18.0969 7.92857 15.5304 9.76722 14.1827 9.76722C12.808 9.76722 10.7325 8.23014 8.49566 8.27531C5.61719 8.31915 2.92434 9.96517 1.44744 12.5212C-1.60052 17.7329 0.672669 25.3918 3.59284 29.6045C5.0536 31.6689 6.76051 33.9712 8.99469 33.8902C11.1804 33.8025 11.9969 32.5139 14.6346 32.5139C17.2481 32.5139 18.0148 33.8902 20.2934 33.8371C22.6392 33.8025 24.1161 31.7659 25.5257 29.6828C27.2138 27.3208 27.8917 24.9892 27.9186 24.8697C27.8648 24.8524 23.3642 23.1559 23.3185 18.0239Z" fill="#4A4A4A"/>
<path fill-rule="evenodd" clip-rule="evenodd" d="M19.0142 5.43225C20.1898 3.9802 20.9942 2.00471 20.7709 0C19.0693 0.0743963 16.9414 1.16244 15.7161 2.58261C14.6319 3.83406 13.6635 5.88527 13.9136 7.81426C15.825 7.95508 17.7875 6.86173 19.0142 5.43225Z" fill="#4A4A4A"/>
</svg>
