<svg width="31" height="29" viewBox="0 0 31 29" fill="none" xmlns="http://www.w3.org/2000/svg">
<path d="M21.5914 9.59888C23.9648 9.59888 26.241 10.5417 27.9193 12.2199C29.5975 13.8982 30.5403 16.1744 30.5403 18.5477V28.9881H24.5744V18.5477C24.5744 17.7566 24.2601 16.9979 23.7007 16.4385C23.1413 15.8791 22.3826 15.5648 21.5914 15.5648C20.8003 15.5648 20.0416 15.8791 19.4822 16.4385C18.9228 16.9979 18.6085 17.7566 18.6085 18.5477V28.9881H12.6426V18.5477C12.6426 16.1744 13.5854 13.8982 15.2636 12.2199C16.9419 10.5417 19.2181 9.59888 21.5914 9.59888Z" fill="white"/>
<path d="M0.710205 11.0901H6.67612V28.9878H0.710205V11.0901Z" fill="white"/>
<path d="M3.69316 6.61581C5.3406 6.61581 6.67612 5.2803 6.67612 3.63286C6.67612 1.98542 5.3406 0.649902 3.69316 0.649902C2.04572 0.649902 0.710205 1.98542 0.710205 3.63286C0.710205 5.2803 2.04572 6.61581 3.69316 6.61581Z" fill="white"/>
</svg>
