<svg width="34" height="27" viewBox="0 0 34 27" fill="none" xmlns="http://www.w3.org/2000/svg">
<path d="M33.5083 0.141219C32.0801 1.14868 30.4987 1.91922 28.8251 2.42318C27.9268 1.39035 26.733 0.658302 25.4052 0.326052C24.0773 -0.00619857 22.6794 0.0773768 21.4006 0.565474C20.1218 1.05357 19.0237 1.92264 18.2549 3.05514C17.4861 4.18765 17.0837 5.52894 17.1021 6.89761V8.38909C14.481 8.45705 11.8838 7.87574 9.54177 6.69693C7.19975 5.51811 5.18562 3.77839 3.67876 1.6327C3.67876 1.6327 -2.28715 15.056 11.1361 21.0219C8.06449 23.1069 4.40534 24.1524 0.695801 24.0049C14.1191 31.4623 30.5254 24.0049 30.5254 6.85287C30.524 6.43742 30.484 6.023 30.406 5.61494C31.9282 4.11376 33.0024 2.21842 33.5083 0.141219Z" fill="white"/>
</svg>
