<svg width="21" height="21" viewBox="0 0 21 21" fill="none" xmlns="http://www.w3.org/2000/svg">
<path fill-rule="evenodd" clip-rule="evenodd" d="M2.22515 9.91681C2.22515 5.66882 5.66882 2.22515 9.91681 2.22515C14.1648 2.22515 17.6085 5.66882 17.6085 9.91681C17.6085 14.1648 14.1648 17.6085 9.91681 17.6085C5.66882 17.6085 2.22515 14.1648 2.22515 9.91681ZM9.91681 0.275146C4.59187 0.275146 0.275146 4.59187 0.275146 9.91681C0.275146 15.2418 4.59187 19.5585 9.91681 19.5585C12.2281 19.5585 14.3495 18.7452 16.0103 17.3892L18.9774 20.3562C19.3581 20.737 19.9755 20.737 20.3562 20.3562C20.737 19.9755 20.737 19.3581 20.3562 18.9774L17.3892 16.0103C18.7452 14.3495 19.5585 12.2281 19.5585 9.91681C19.5585 4.59187 15.2418 0.275146 9.91681 0.275146Z" fill="white"/>
</svg>
